<svg width="42" height="42" viewBox="0 0 42 42" fill="none" xmlns="http://www.w3.org/2000/svg">
<rect width="42" height="42" rx="12" fill="#EDF2F6"/>
<path fill-rule="evenodd" clip-rule="evenodd" d="M17.6483 14.6364C17.6483 12.6281 19.1489 11 21 11C22.8511 11 24.3517 12.6281 24.3517 14.6364V21.3636C24.3517 23.3719 22.8511 25 21 25C19.1489 25 17.6483 23.3719 17.6483 21.3636V14.6364ZM21 12.4545C19.8893 12.4545 18.989 13.4314 18.989 14.6364V21.3636C18.989 22.5686 19.8893 23.5455 21 23.5455C22.1107 23.5455 23.011 22.5686 23.011 21.3636V14.6364C23.011 13.4314 22.1107 12.4545 21 12.4545Z" fill="#2B333E"/>
<path fill-rule="evenodd" clip-rule="evenodd" d="M15.6373 21.3636C16.0075 21.3636 16.3026 21.6911 16.3549 22.0888C16.6793 24.5569 18.6354 26.4545 21 26.4545C23.3646 26.4545 25.3207 24.5569 25.6451 22.0888C25.6974 21.6911 25.9925 21.3636 26.3627 21.3636C26.7329 21.3636 27.037 21.6906 26.9964 22.0898C26.6876 25.1242 24.4671 27.5337 21.6703 27.8691V30.2727C21.6703 30.6744 21.3702 31 21 31C20.6298 31 20.3297 30.6744 20.3297 30.2727V27.8691C17.5329 27.5337 15.3124 25.1242 15.0036 22.0898C14.963 21.6906 15.2671 21.3636 15.6373 21.3636Z" fill="#2B333E"/>
</svg>
