<svg width="42" height="42" viewBox="0 0 42 42" fill="none" xmlns="http://www.w3.org/2000/svg">
<rect width="42" height="42" rx="12" fill="#EDF2F6"/>
<path fill-rule="evenodd" clip-rule="evenodd" d="M27.465 13.5309C25.9851 12.0842 23.5768 12.0842 22.0969 13.5309L15.0351 20.434C12.9007 22.5204 12.9007 25.8938 15.0351 27.9802C17.1819 30.0788 20.6714 30.0788 22.8181 27.9802L26.5584 24.324C26.8427 24.046 27.2968 24.0531 27.5725 24.3397C27.8482 24.6263 27.8413 25.084 27.5569 25.362L23.8167 29.0182C21.1135 31.6606 16.7397 31.6606 14.0366 29.0182C11.3211 26.3637 11.3211 22.0505 14.0366 19.396L21.0984 12.4929C23.1347 10.5024 26.4273 10.5024 28.4635 12.4929C30.5122 14.4955 30.5122 17.7518 28.4635 19.7544L21.4261 26.6337C20.0567 27.9723 17.8453 27.9723 16.4759 26.6337C15.0942 25.283 15.0942 23.0836 16.4759 21.7328L21.818 16.5108C22.1023 16.2328 22.5564 16.2399 22.8321 16.5265C23.1079 16.8131 23.1009 17.2708 22.8165 17.5487L17.4745 22.7708C16.6738 23.5535 16.6738 24.813 17.4745 25.5957C18.2875 26.3905 19.6146 26.3905 20.4276 25.5957L27.465 18.7164C28.9325 17.2819 28.9325 14.9654 27.465 13.5309Z" fill="#2B333E"/>
</svg>
